<svg xmlns="http://www.w3.org/2000/svg" version="1.1" xmlns:xlink="http://www.w3.org/1999/xlink" xmlns:svgjs="http://svgjs.dev/svgjs" width="1500" height="1500" viewBox="0 0 1500 1500"><rect width="1500" height="1500" fill="#000000"></rect><g transform="matrix(0.6666666666666666,0,0,0.6666666666666666,249.39393939393955,588.0908562326632)"><svg viewBox="0 0 396 128" data-background-color="#ffffff" preserveAspectRatio="xMidYMid meet" height="484" width="1500" xmlns="http://www.w3.org/2000/svg" xmlns:xlink="http://www.w3.org/1999/xlink"><g id="tight-bounds" transform="matrix(1,0,0,1,0.23999999999995225,0.2284206680344596)"><svg viewBox="0 0 395.52 127.54315866393108" height="127.54315866393108" width="395.52"><g><svg viewBox="0 0 637.2980846432157 205.50923019283232" height="127.54315866393108" width="395.52"><g><rect width="5.809928107980326" height="151.22462914923028" x="220.75892065047015" y="27.14230052180102" fill="#ffffff" opacity="1" stroke-width="0" stroke="transparent" fill-opacity="1" class="rect-qz-0" data-fill-palette-color="primary" rx="1%" id="qz-0" data-palette-color="#08d464"></rect></g><g transform="matrix(1,0,0,1,241.77808464321575,39.74435295090354)"><svg viewBox="0 0 395.52 126.02052429102524" height="126.02052429102524" width="395.52"><g id="textblocktransform"><svg viewBox="0 0 395.52 126.02052429102524" height="126.02052429102524" width="395.52" id="textblock"><g><svg viewBox="0 0 395.52 64.42516767805813" height="64.42516767805813" width="395.52"><g transform="matrix(1,0,0,1,0,0)"><svg width="395.52" viewBox="1.2 -24.9 156.54000000000002 25.5" height="64.42516767805813" data-palette-color="#08d464"><path d="M12.75 0L7.95 0 1.2-24.3 5.4-24.3 9-10.25Q9.4-8.5 9.75-6.85 10.1-5.2 10.45-3.5L10.45-3.5 10.65-3.5Q11.05-5.2 11.45-6.88 11.85-8.55 12.3-10.25L12.3-10.25 16.05-24.3 20.05-24.3 23.85-10.25Q24.3-8.5 24.73-6.85 25.15-5.2 25.55-3.5L25.55-3.5 25.75-3.5Q26.15-5.2 26.5-6.85 26.85-8.5 27.25-10.25L27.25-10.25 30.8-24.3 34.7-24.3 28.2 0 23.2 0 19.7-13.05Q19.25-14.8 18.88-16.5 18.5-18.2 18.05-20.05L18.05-20.05 17.85-20.05Q17.45-18.2 17.05-16.48 16.65-14.75 16.15-13L16.15-13 12.75 0ZM49.65 0.6L49.65 0.6Q47.2 0.6 45.07-0.28 42.95-1.15 41.37-2.78 39.8-4.4 38.9-6.75 38-9.1 38-12.1L38-12.1Q38-15.1 38.92-17.48 39.85-19.85 41.37-21.5 42.9-23.15 44.85-24.03 46.8-24.9 48.9-24.9L48.9-24.9Q51.2-24.9 53.02-24.1 54.85-23.3 56.07-21.8 57.3-20.3 57.95-18.2 58.6-16.1 58.6-13.5L58.6-13.5Q58.6-12.85 58.57-12.23 58.55-11.6 58.45-11.15L58.45-11.15 42.05-11.15Q42.3-7.25 44.47-4.98 46.65-2.7 50.15-2.7L50.15-2.7Q51.9-2.7 53.37-3.23 54.85-3.75 56.2-4.6L56.2-4.6 57.65-1.9Q56.05-0.9 54.1-0.15 52.15 0.6 49.65 0.6ZM42-14.1L42-14.1 55-14.1Q55-17.8 53.42-19.73 51.85-21.65 49-21.65L49-21.65Q47.7-21.65 46.52-21.15 45.35-20.65 44.4-19.68 43.45-18.7 42.82-17.3 42.2-15.9 42-14.1ZM84.19 0.6L84.19 0.6Q81.79 0.6 79.69-0.25 77.59-1.1 76.07-2.73 74.54-4.35 73.67-6.73 72.79-9.1 72.79-12.1L72.79-12.1Q72.79-15.15 73.74-17.53 74.69-19.9 76.29-21.55 77.89-23.2 80.02-24.05 82.14-24.9 84.49-24.9L84.49-24.9Q86.89-24.9 88.59-24.05 90.29-23.2 91.59-22.05L91.59-22.05 89.49-19.35Q88.44-20.3 87.27-20.9 86.09-21.5 84.64-21.5L84.64-21.5Q82.99-21.5 81.59-20.83 80.19-20.15 79.19-18.9 78.19-17.65 77.62-15.93 77.04-14.2 77.04-12.1L77.04-12.1Q77.04-10 77.59-8.3 78.14-6.6 79.12-5.38 80.09-4.15 81.49-3.48 82.89-2.8 84.54-2.8L84.54-2.8Q86.24-2.8 87.67-3.53 89.09-4.25 90.24-5.25L90.24-5.25 92.04-2.5Q90.39-1.05 88.39-0.23 86.39 0.6 84.19 0.6ZM102.49 0.6L102.49 0.6Q99.44 0.6 97.42-1.2 95.39-3 95.39-6.3L95.39-6.3Q95.39-10.3 98.94-12.43 102.49-14.55 110.29-15.4L110.29-15.4Q110.29-16.55 110.07-17.65 109.84-18.75 109.29-19.6 108.74-20.45 107.77-20.98 106.79-21.5 105.29-21.5L105.29-21.5Q103.19-21.5 101.34-20.7 99.49-19.9 98.04-18.9L98.04-18.9 96.44-21.75Q98.14-22.85 100.59-23.88 103.04-24.9 105.99-24.9L105.99-24.9Q110.44-24.9 112.44-22.18 114.44-19.45 114.44-14.9L114.44-14.9 114.44 0 111.04 0 110.69-2.9 110.54-2.9Q108.79-1.45 106.79-0.43 104.79 0.6 102.49 0.6ZM103.69-2.7L103.69-2.7Q105.44-2.7 106.99-3.53 108.54-4.35 110.29-5.95L110.29-5.95 110.29-12.7Q107.24-12.3 105.17-11.75 103.09-11.2 101.82-10.45 100.54-9.7 99.97-8.72 99.39-7.75 99.39-6.6L99.39-6.6Q99.39-4.5 100.64-3.6 101.89-2.7 103.69-2.7ZM126.19 0L122.09 0 122.09-24.3 125.49-24.3 125.84-19.9 125.99-19.9Q127.24-22.2 129.01-23.55 130.79-24.9 132.89-24.9L132.89-24.9Q134.34-24.9 135.49-24.4L135.49-24.4 134.69-20.8Q134.09-21 133.59-21.1 133.09-21.2 132.34-21.2L132.34-21.2Q130.79-21.2 129.11-19.95 127.44-18.7 126.19-15.6L126.19-15.6 126.19 0ZM148.78 0.6L148.78 0.6Q146.34 0.6 144.21-0.28 142.09-1.15 140.51-2.78 138.94-4.4 138.03-6.75 137.14-9.1 137.14-12.1L137.14-12.1Q137.14-15.1 138.06-17.48 138.99-19.85 140.51-21.5 142.03-23.15 143.99-24.03 145.94-24.9 148.03-24.9L148.03-24.9Q150.34-24.9 152.16-24.1 153.99-23.3 155.21-21.8 156.44-20.3 157.09-18.2 157.74-16.1 157.74-13.5L157.74-13.5Q157.74-12.85 157.71-12.23 157.69-11.6 157.59-11.15L157.59-11.15 141.19-11.15Q141.44-7.25 143.61-4.98 145.78-2.7 149.28-2.7L149.28-2.7Q151.03-2.7 152.51-3.23 153.99-3.75 155.34-4.6L155.34-4.6 156.79-1.9Q155.19-0.9 153.24-0.15 151.28 0.6 148.78 0.6ZM141.14-14.1L141.14-14.1 154.14-14.1Q154.14-17.8 152.56-19.73 150.99-21.65 148.14-21.65L148.14-21.65Q146.84-21.65 145.66-21.15 144.49-20.65 143.53-19.68 142.59-18.7 141.96-17.3 141.34-15.9 141.14-14.1Z" opacity="1" transform="matrix(1,0,0,1,0,0)" fill="#ffffff" class="wordmark-text-0" data-fill-palette-color="primary" id="text-0"></path></svg></g></svg></g><g transform="matrix(1,0,0,1,0,79.63440356282338)"><svg viewBox="0 0 395.52 46.38612072820186" height="46.38612072820186" width="395.52"><g transform="matrix(1,0,0,1,0,0)"><svg width="395.52" viewBox="3.1 -36 387.10999999999996 45.4" height="46.38612072820186" data-palette-color="#4d7e3e"><path d="M17.2-34.8Q21.2-34.8 24.2-33.15 27.2-31.5 28.83-28.43 30.45-25.35 30.45-21.15L30.45-21.15 25.55-21.15Q25.55-25.5 23.4-27.93 21.25-30.35 17.2-30.35L17.2-30.35Q12.7-30.35 10.35-27.58 8-24.8 8-19.4L8-19.4 8-14.9Q8-9.55 10.3-6.75 12.6-3.95 17.1-3.95L17.1-3.95Q21.3-3.95 23.53-6.35 25.75-8.75 25.75-13.05L25.75-13.05 30.45-13.05Q30.45-8.9 28.83-5.85 27.2-2.8 24.2-1.15 21.2 0.5 17.2 0.5L17.2 0.5Q10.55 0.5 6.83-3.58 3.1-7.65 3.1-14.9L3.1-14.9 3.1-19.4Q3.1-26.6 6.83-30.7 10.55-34.8 17.2-34.8L17.2-34.8ZM45.71-36L45.71-22.35Q48.86-26.05 53.61-26.05L53.61-26.05Q57.81-26.05 60.21-23.8 62.61-21.55 62.61-17.2L62.61-17.2 62.61 0 57.91 0 57.91-16.35Q57.91-22.3 52.51-22.3L52.51-22.3Q50.71-22.3 49.16-21.35 47.61-20.4 46.66-18.78 45.71-17.15 45.71-15.2L45.71-15.2 45.71 0 41.01 0 41.01-36 45.71-36ZM84.41-26.05Q89.46-26.05 91.94-24.05 94.41-22.05 94.41-18.25L94.41-18.25 94.41-5Q94.41-4.1 94.81-3.68 95.21-3.25 95.81-3.25L95.81-3.25Q96.96-3.25 98.11-3.95L98.11-3.95 98.11-0.5Q96.41 0.5 94.26 0.5L94.26 0.5Q92.11 0.5 91.06-0.73 90.01-1.95 89.91-4.1L89.91-4.1Q86.81 0.5 80.96 0.5L80.96 0.5Q76.76 0.5 74.69-1.33 72.61-3.15 72.61-7.1L72.61-7.1Q72.61-10.2 74.21-11.98 75.81-13.75 79.51-14.55 83.21-15.35 89.71-15.35L89.71-15.35 89.71-17.7Q89.71-20.25 88.21-21.28 86.71-22.3 83.86-22.3L83.86-22.3Q81.16-22.3 79.66-21.25 78.16-20.2 78.16-18.3L78.16-18.3 78.16-17.7 73.56-17.7Q73.46-18.4 73.46-19.35L73.46-19.35Q73.46-21.1 74.86-22.65 76.26-24.2 78.66-25.13 81.06-26.05 83.96-26.05L83.96-26.05 84.41-26.05ZM89.71-11.7Q84.46-11.7 81.79-11.18 79.11-10.65 78.21-9.6 77.31-8.55 77.31-6.7L77.31-6.7Q77.31-3.25 82.56-3.25L82.56-3.25Q84.41-3.25 86.06-4.17 87.71-5.1 88.71-6.8 89.71-8.5 89.71-10.7L89.71-10.7 89.71-11.7ZM119.92-26.05Q124.12-26.05 126.52-23.8 128.92-21.55 128.92-17.2L128.92-17.2 128.92 0 124.22 0 124.22-16.35Q124.22-22.3 118.82-22.3L118.82-22.3Q117.02-22.3 115.47-21.35 113.92-20.4 112.97-18.78 112.02-17.15 112.02-15.2L112.02-15.2 112.02 0 107.32 0 107.32-25.55 110.72-25.55 111.37-21.8Q114.57-26.05 119.92-26.05L119.92-26.05ZM164.07-30.15Q164.07-27.6 162.72-25.88 161.37-24.15 158.97-23.65L158.97-23.65 158.87-23.5Q161.37-21.3 161.37-18L161.37-18Q161.37-14.4 158.67-12.2 155.97-10 151.32-10L151.32-10 147.92-10Q146.42-10 145.42-9.22 144.42-8.45 144.42-7.25L144.42-7.25Q144.42-6.05 145.37-5.35 146.32-4.65 147.92-4.65L147.92-4.65 157.57-4.65Q160.52-4.65 162.3-2.8 164.07-0.95 164.07 1.9L164.07 1.9Q164.07 5.3 161.5 7.35 158.92 9.4 154.57 9.4L154.57 9.4 144.52 9.4Q142.82 9.4 141.4 8.5 139.97 7.6 139.15 6.23 138.32 4.85 138.32 3.4L138.32 3.4Q138.32 1.3 139.35-0.25 140.37-1.8 142.07-2.55L142.07-2.55Q139.77-3.95 139.77-6.7L139.77-6.7Q139.77-8.5 140.82-9.8 141.87-11.1 143.77-11.75L143.77-11.75Q140.42-13.6 140.42-18L140.42-18Q140.42-21.7 143.15-23.88 145.87-26.05 150.72-26.05L150.72-26.05 150.92-26.05Q153.72-26.05 156.02-25.2L156.02-25.2Q159.57-26.95 160.07-30.15L160.07-30.15 164.07-30.15ZM150.87-22.3Q148.22-22.3 146.65-21.28 145.07-20.25 145.07-18L145.07-18Q145.07-15.75 146.65-14.75 148.22-13.75 150.87-13.75L150.87-13.75Q153.52-13.75 155.12-14.75 156.72-15.75 156.72-18L156.72-18Q156.72-20.25 155.12-21.28 153.52-22.3 150.87-22.3L150.87-22.3ZM156.17-0.15L145.87-0.15Q144.67-0.15 143.82 0.7 142.97 1.55 142.97 2.75L142.97 2.75Q142.97 3.95 143.82 4.8 144.67 5.65 145.87 5.65L145.87 5.65 155.52 5.65Q157.12 5.65 158.27 4.73 159.42 3.8 159.42 2.6L159.42 2.6Q159.42 1.35 158.57 0.6 157.72-0.15 156.17-0.15L156.17-0.15ZM183.03-26.05Q186.18-26.05 188.6-24.73 191.03-23.4 192.38-20.95 193.73-18.5 193.73-15.25L193.73-15.25 193.73-11.7 175.88-11.7Q175.98-7.65 177.78-5.45 179.58-3.25 183.13-3.25L183.13-3.25Q186.28-3.25 187.78-5.1 189.28-6.95 189.28-9.5L189.28-9.5 193.73-9.5Q193.73-6.5 192.35-4.25 190.98-2 188.55-0.75 186.13 0.5 183.03 0.5L183.03 0.5 182.83 0.5Q177.43 0.5 174.3-2.98 171.18-6.45 171.18-12.25L171.18-12.25 171.18-13.25Q171.18-17.05 172.58-19.95 173.98-22.85 176.58-24.45 179.18-26.05 182.68-26.05L182.68-26.05 183.03-26.05ZM182.78-22.3Q179.93-22.3 178.15-20.55 176.38-18.8 175.98-15.35L175.98-15.35 189.08-15.35 189.08-15.95Q189.08-18.8 187.35-20.55 185.63-22.3 182.78-22.3L182.78-22.3ZM235.84-34.3Q238.29-34.3 240.34-33.18 242.39-32.05 243.61-30.13 244.84-28.2 244.84-25.9L244.84-25.9Q244.84-22.85 243.34-20.8 241.84-18.75 238.84-17.9L238.84-17.9 238.84-17.65Q241.79-17.2 243.71-15 245.64-12.8 245.64-9.35L245.64-9.35Q245.64-6.6 244.31-4.48 242.99-2.35 240.79-1.18 238.59 0 236.14 0L236.14 0 220.64 0 220.64-34.3 235.84-34.3ZM234.84-29.85L225.54-29.85 225.54-19.7 234.84-19.7Q236.84-19.7 238.39-21.15 239.94-22.6 239.94-24.75L239.94-24.75Q239.94-26.85 238.44-28.35 236.94-29.85 234.84-29.85L234.84-29.85ZM235.34-15.25L225.54-15.25 225.54-4.45 235.34-4.45Q237.59-4.45 239.16-6.03 240.74-7.6 240.74-9.85L240.74-9.85Q240.74-12.1 239.16-13.68 237.59-15.25 235.34-15.25L235.34-15.25ZM266.69-26.05Q269.84-26.05 272.27-24.73 274.69-23.4 276.04-20.95 277.39-18.5 277.39-15.25L277.39-15.25 277.39-11.7 259.54-11.7Q259.64-7.65 261.44-5.45 263.24-3.25 266.79-3.25L266.79-3.25Q269.94-3.25 271.44-5.1 272.94-6.95 272.94-9.5L272.94-9.5 277.39-9.5Q277.39-6.5 276.02-4.25 274.64-2 272.22-0.75 269.79 0.5 266.69 0.5L266.69 0.5 266.49 0.5Q261.09 0.5 257.97-2.98 254.84-6.45 254.84-12.25L254.84-12.25 254.84-13.25Q254.84-17.05 256.24-19.95 257.64-22.85 260.24-24.45 262.84-26.05 266.34-26.05L266.34-26.05 266.69-26.05ZM266.44-22.3Q263.59-22.3 261.82-20.55 260.04-18.8 259.64-15.35L259.64-15.35 272.74-15.35 272.74-15.95Q272.74-18.8 271.02-20.55 269.29-22.3 266.44-22.3L266.44-22.3ZM311.35-30.15Q311.35-27.6 310-25.88 308.65-24.15 306.25-23.65L306.25-23.65 306.15-23.5Q308.65-21.3 308.65-18L308.65-18Q308.65-14.4 305.95-12.2 303.25-10 298.6-10L298.6-10 295.2-10Q293.7-10 292.7-9.22 291.7-8.45 291.7-7.25L291.7-7.25Q291.7-6.05 292.65-5.35 293.6-4.65 295.2-4.65L295.2-4.65 304.85-4.65Q307.8-4.65 309.57-2.8 311.35-0.95 311.35 1.9L311.35 1.9Q311.35 5.3 308.77 7.35 306.2 9.4 301.85 9.4L301.85 9.4 291.8 9.4Q290.1 9.4 288.67 8.5 287.25 7.6 286.42 6.23 285.6 4.85 285.6 3.4L285.6 3.4Q285.6 1.3 286.62-0.25 287.65-1.8 289.35-2.55L289.35-2.55Q287.05-3.95 287.05-6.7L287.05-6.7Q287.05-8.5 288.1-9.8 289.15-11.1 291.05-11.75L291.05-11.75Q287.7-13.6 287.7-18L287.7-18Q287.7-21.7 290.42-23.88 293.15-26.05 298-26.05L298-26.05 298.2-26.05Q301-26.05 303.3-25.2L303.3-25.2Q306.85-26.95 307.35-30.15L307.35-30.15 311.35-30.15ZM298.15-22.3Q295.5-22.3 293.92-21.28 292.35-20.25 292.35-18L292.35-18Q292.35-15.75 293.92-14.75 295.5-13.75 298.15-13.75L298.15-13.75Q300.8-13.75 302.4-14.75 304-15.75 304-18L304-18Q304-20.25 302.4-21.28 300.8-22.3 298.15-22.3L298.15-22.3ZM303.45-0.15L293.15-0.15Q291.95-0.15 291.1 0.7 290.25 1.55 290.25 2.75L290.25 2.75Q290.25 3.95 291.1 4.8 291.95 5.65 293.15 5.65L293.15 5.65 302.8 5.65Q304.4 5.65 305.55 4.73 306.7 3.8 306.7 2.6L306.7 2.6Q306.7 1.35 305.85 0.6 305-0.15 303.45-0.15L303.45-0.15ZM319.95-36L324.85-36 324.85-31.65 319.95-31.65 319.95-36ZM320.05-25.55L324.75-25.55 324.75 0 320.05 0 320.05-25.55ZM349.36-26.05Q353.56-26.05 355.96-23.8 358.36-21.55 358.36-17.2L358.36-17.2 358.36 0 353.66 0 353.66-16.35Q353.66-22.3 348.26-22.3L348.26-22.3Q346.46-22.3 344.91-21.35 343.36-20.4 342.41-18.78 341.46-17.15 341.46-15.2L341.46-15.2 341.46 0 336.76 0 336.76-25.55 340.16-25.55 340.81-21.8Q344.01-26.05 349.36-26.05L349.36-26.05ZM379.86-26.05Q382.71-26.05 384.94-25.15 387.16-24.25 388.39-22.65 389.61-21.05 389.61-19.1L389.61-19.1 389.56-18.2 384.91-18.2 384.91-18.65Q384.91-22.3 379.26-22.3L379.26-22.3Q373.66-22.3 373.66-18.95L373.66-18.95Q373.66-17.4 375.26-16.68 376.86-15.95 380.16-15.3L380.16-15.3Q383.31-14.65 385.34-13.95 387.36-13.25 388.79-11.75 390.21-10.25 390.21-7.7L390.21-7.7Q390.21-3.6 387.41-1.55 384.61 0.5 379.36 0.5L379.36 0.5 378.61 0.5Q375.46 0.5 373.11-0.48 370.76-1.45 369.49-3.13 368.21-4.8 368.26-6.9L368.26-6.9 368.26-8 372.91-8 372.91-7.5Q372.91-3.25 380.06-3.25L380.06-3.25Q382.16-3.25 383.84-4.2 385.51-5.15 385.51-6.8L385.51-6.8Q385.51-8.2 384.59-9 383.66-9.8 382.31-10.2 380.96-10.6 378.56-11L378.56-11Q375.46-11.6 373.56-12.23 371.66-12.85 370.31-14.35 368.96-15.85 368.96-18.45L368.96-18.45Q368.96-22 371.76-24.03 374.56-26.05 379.41-26.05L379.41-26.05 379.86-26.05Z" opacity="1" transform="matrix(1,0,0,1,0,0)" fill="#ffffff" class="slogan-text-1" data-fill-palette-color="secondary" id="text-1"></path></svg></g></svg></g></svg></g></svg></g><g><svg viewBox="0 0 205.54968476570488 205.50923019283232" height="205.50923019283232" width="205.54968476570488"><g><svg xmlns="http://www.w3.org/2000/svg" xmlns:xlink="http://www.w3.org/1999/xlink" version="1.1" x="0" y="0" viewBox="2 2 508.0999999999999 508" enable-background="new 0 0 512 512" xml:space="preserve" height="205.50923019283232" width="205.54968476570488" class="icon-icon-0" data-fill-palette-color="accent" id="icon-0"><g fill="#58d777" data-fill-palette-color="accent"><path d="M484.6 123h-127c-6.5 0-12.7 2.4-17.4 6.6L208 248.2c-27 25.8-31.6 65.3-10.7 93.9 7 9.6 16.1 17.3 26.6 22.7H78.2c-42 0-76.2 32.6-76.2 72.6S36.2 510 78.2 510h203.2c6.7 0 13.2-2.6 18-7.1l170.4-162.2h14.9c14 0 25.4-10.8 25.4-24.2V147.1C510 133.8 498.6 123 484.6 123zM459.2 292.3c-6.7 0-13.2 2.6-18 7.1L270.9 461.6H78.2c-14 0-25.4-10.8-25.4-24.2 0-13.3 11.4-24.2 25.4-24.2h161.1c6.7 0 13.2-2.6 18-7.1l92.7-88.3c9.9-9.4 9.9-24.8 0-34.2-9.9-9.4-26-9.4-35.9 0l-37.4 35.6c-11 8.9-29 7-37.5-4.7-6.7-9.3-4.6-23.1 4.4-31.7l124.3-111.6h91.5V292.3z" fill="#ffffff" data-fill-palette-color="accent"></path><path d="M103.6 195.5c0 0 101.6-72.6 101.6-133 0-33.4-28.4-60.5-63.5-60.5-14.4 0-27.5 4.7-38.1 12.4C93 6.7 79.9 2 65.5 2 30.4 2 2 29.1 2 62.5 2 123 103.6 195.5 103.6 195.5z" fill="#ffffff" data-fill-palette-color="accent"></path></g></svg></g></svg></g></svg></g><defs></defs></svg><rect width="395.52" height="127.54315866393108" fill="none" stroke="none" visibility="hidden"></rect></g></svg></g></svg>